<?xml version="1.0" encoding="utf-8"?>
<!-- Generator: Adobe Illustrator 27.8.1, SVG Export Plug-In . SVG Version: 6.00 Build 0)  -->
<svg version="1.1" id="Layer_1" xmlns="http://www.w3.org/2000/svg" xmlns:xlink="http://www.w3.org/1999/xlink" x="0px" y="0px"
	 viewBox="0 0 134.2 18" style="enable-background:new 0 0 134.2 18;" xml:space="preserve">
<style type="text/css">
	.st0{fill:#FFFFFF;}
	.st1{fill:#F26623;}
</style>
<g>
	<path class="st0" d="M14.2,4.5h4.9c0.7,0,1.2,0.2,1.6,0.5c0.4,0.3,0.5,0.7,0.5,1.3c0,0.3-0.1,0.6-0.2,0.9l-1.4,4.2
		c-0.4,1.3-1.3,1.9-2.6,1.9h-3.6l-1.2,3.8h7c1.4,0,2.5-0.3,3.3-1c0.9-0.6,1.5-1.6,1.9-2.9L26.9,6c0.2-0.6,0.3-1.3,0.3-1.9
		c0-1.1-0.4-1.9-1.1-2.5c-0.7-0.6-1.8-0.9-3.1-0.9H10L8.8,4.5H14.2"/>
	<g>
		<polygon class="st1" points="14.2,4.5 10.2,17.1 4.7,17.1 7.5,8.3 14.2,4.5 		"/>
	</g>
	<g>
		<g>
			<path fill="#FFFFFF" class="st0" d="M47.1,8.6l0.2-0.5l0.7-2c0.2-0.7,0.4-1.3,0.4-1.9c0-1.1-0.4-1.9-1.1-2.5c-0.7-0.6-1.8-0.9-3.1-0.9H31
				l-1.2,3.8l-4.1,12.6h5.5l1.5-4.6h4.8l2.5,4.6h5.5l-2.6-4.7C45,12.1,46.4,10.8,47.1,8.6z M42.4,6.1l-0.4,1.1
				c-0.2,0.6-0.4,0.9-0.8,1.2c-0.3,0.2-0.8,0.3-1.5,0.3h-5.9l1.4-4.1h5.6c0.6,0,1,0.1,1.3,0.3c0.3,0.2,0.4,0.4,0.4,0.8
				C42.5,5.7,42.5,5.8,42.4,6.1z"/>
			<polygon class="st0" points="46.7,17.1 52.1,17.1 53.4,13.3 47.9,13.3 			"/>
			<polygon class="st0" points="83.1,0.8 77.8,17.1 83.3,17.1 88.6,0.8 			"/>
			<path class="st0" d="M101.6,6.9h-5.5c-0.9,0-1.3-0.3-1.3-0.9c0-0.2,0-0.4,0.1-0.6c0.1-0.4,0.3-0.7,0.5-0.7
				c0.2-0.1,0.6-0.1,1.1-0.1h10.6l1.2-3.8H95c-1.4,0-2.5,0.3-3.3,0.9c-0.9,0.6-1.5,1.6-1.9,2.9l-0.3,0.8c-0.2,0.7-0.4,1.3-0.4,1.9
				c0,1.1,0.4,1.9,1.1,2.5s1.8,0.9,3.1,0.9h4.8c0.9,0,1.3,0.3,1.3,0.9c0,0.2,0,0.4-0.1,0.6h0c-0.1,0.4-0.3,0.7-0.6,0.9
				c-0.3,0.1-0.6,0.2-1.1,0.2H87l-1.2,3.8h13.4c1.4,0,2.5-0.3,3.3-0.9c0.9-0.6,1.5-1.6,1.9-2.9l0.3-1h0c0.3-0.9,0.4-1.7,0.4-2.3
				C105.2,7.9,104,6.9,101.6,6.9z"/>
			<polygon class="st0" points="124,0.8 121.7,7.7 116.7,7.7 112.8,11.5 116.3,0.8 110.8,0.8 105.5,17.1 111,17.1 112.8,11.5 
				120.5,11.5 118.7,17.1 124.2,17.1 129.5,0.8 			"/>
			<path class="st0" d="M79.4,4.2c0-1.1-0.4-1.9-1.1-2.5c-0.7-0.6-1.8-0.9-3.1-0.9H62.1l-1.2,3.8h5.4l-6.7,3.8l-2.8,8.8h5.5
				l4.1-12.6h4.9c0.7,0,1.2,0.2,1.6,0.5c0.4,0.3,0.5,0.7,0.5,1.3c0,0.3-0.1,0.6-0.2,0.9l-1.4,4.2c-0.4,1.3-1.3,1.9-2.6,1.9h-3.6
				l-1.2,3.8h7.1c1.4,0,2.5-0.3,3.3-1c0.9-0.6,1.5-1.6,1.9-2.9l2.3-7.2C79.3,5.4,79.4,4.8,79.4,4.2z"/>
		</g>
		<g>
			<path class="st0" d="M130.6,1.2c0-0.1,0.1-0.2,0.2-0.2c0.1-0.1,0.1-0.1,0.2-0.2c0.1,0,0.2-0.1,0.3-0.1c0.1,0,0.2,0,0.3,0.1
				c0.1,0,0.2,0.1,0.2,0.2s0.1,0.1,0.2,0.2c0,0.1,0.1,0.2,0.1,0.3c0,0.1,0,0.2-0.1,0.3c0,0.1-0.1,0.2-0.2,0.2s-0.1,0.1-0.2,0.2
				c-0.1,0-0.2,0.1-0.3,0.1c-0.1,0-0.2,0-0.3-0.1c-0.1,0-0.2-0.1-0.2-0.2c-0.1-0.1-0.1-0.1-0.2-0.2c0-0.1-0.1-0.2-0.1-0.3
				C130.6,1.4,130.6,1.3,130.6,1.2z M130.7,1.7c0,0.1,0.1,0.1,0.1,0.2c0.1,0.1,0.1,0.1,0.2,0.1c0.1,0,0.2,0,0.2,0c0.1,0,0.2,0,0.2,0
				c0.1,0,0.1-0.1,0.2-0.1c0.1-0.1,0.1-0.1,0.1-0.2c0-0.1,0-0.2,0-0.2c0-0.1,0-0.2,0-0.2c0-0.1-0.1-0.1-0.1-0.2s-0.1-0.1-0.2-0.1
				c-0.1,0-0.2,0-0.2,0c-0.1,0-0.2,0-0.2,0c-0.1,0-0.1,0.1-0.2,0.1c-0.1,0.1-0.1,0.1-0.1,0.2c0,0.1,0,0.2,0,0.2
				C130.7,1.6,130.7,1.7,130.7,1.7z M131.3,1.1c0.1,0,0.2,0,0.2,0.1c0,0,0.1,0.1,0.1,0.2c0,0.1,0,0.1-0.1,0.2c0,0-0.1,0.1-0.2,0.1
				l0.2,0.4h-0.1l-0.2-0.4h-0.1v0.4H131V1.1H131.3z M131.3,1.4C131.3,1.4,131.3,1.4,131.3,1.4c0.1,0,0.1,0,0.2,0c0,0,0,0,0,0
				c0,0,0,0,0-0.1c0,0,0-0.1,0-0.1c0,0,0,0,0,0c0,0,0,0-0.1,0c0,0,0,0-0.1,0h-0.2v0.3H131.3z"/>
		</g>
	</g>
	<g>
		<g>
			<path class="st1" d="M7,6.9l0.3-1.1h-1l0.4-1.3H5.7L5.3,5.8H3.8l0.4-1.3H3.2L2.8,5.8H1.9L1.5,6.9h0.9L2,8.3H1.1L0.7,9.4h0.9
				l-0.4,1.3h1.1l0.4-1.3h1.5l-0.4,1.3h1.1l0.4-1.3h1l0.3-1.1h-1L6,6.9H7z M4.5,8.3H3l0.5-1.5h1.5L4.5,8.3z"/>
			<path class="st1" d="M6.8,4.5L6.3,5.8h1L7,6.9H6L5.5,8.3h1L6.1,9.4h-1l-0.4,1.3H3.7l0.4-1.3H2.7l-0.4,1.3H1.2l0.4-1.3H0.7
				l0.3-1.1H2l0.5-1.5H1.5l0.3-1.1h0.9l0.4-1.3h1.1L3.8,5.8h1.5l0.4-1.3H6.8 M3,8.3h1.5l0.5-1.5H3.5L3,8.3"/>
		</g>
	</g>
</g>
</svg>
