<?xml version="1.0" encoding="utf-8"?>
<!-- Generator: Adobe Illustrator 21.0.0, SVG Export Plug-In . SVG Version: 6.00 Build 0)  -->
<svg version="1.1" id="Layer_1" xmlns="http://www.w3.org/2000/svg" xmlns:xlink="http://www.w3.org/1999/xlink" x="0px" y="0px"
	 viewBox="0 0 194 33.7" style="enable-background:new 0 0 194 33.7;" xml:space="preserve">
<style type="text/css">
	.st0{fill:#FFFFFF;}
	.st1{fill:#FF671B;}
</style>
<path class="st0" d="M0,0.2l24,25.2V1.5h3.4v32.2L3.4,8.5v23.7H0V0.2z"/>
<path class="st0" d="M119,23.5l-3.7,8.7h-3.8L125.8,0l13.8,32.3h-3.8l-3.6-8.7H119z M125.7,8l-5.3,12.3h10.4L125.7,8z"/>
<path class="st0" d="M190.5,14V1.5h3.4v30.8h-3.4V17.2h-15.8v15.1h-3.4V1.5h3.4V14H190.5z"/>
<path class="st1" d="M87,19.1c0.1,0.1,0.1,0.2,0.1,0.3c-0.4,2.6-1.4,4.9-2.9,6.9c-0.3,0.4-0.6,0.8-1,1.2c-2.9,3.2-7.1,5.3-11.8,5.3
	c-0.1,0-0.1,0-0.2,0c0,0,0,0,0,0c0,0,0,0,0,0c-0.1,0-0.1,0-0.2,0c-4.7-0.1-8.9-2.1-11.8-5.3c-0.3-0.4-0.7-0.8-1-1.2
	c-1.5-2-2.5-4.4-2.9-6.9c0-0.1,0-0.2,0.1-0.3c0.9-1.6,2-3,3.3-4.1c-0.1,0.6-0.1,1.3-0.1,1.9c0,1.8,0.4,3.6,1.1,5.2
	c0.5-0.9,1.1-1.8,1.7-2.7c1.5-2.2,2.9-4.3,4.3-6.6c0.4-0.6,0.7-1.3,0.9-2.1c0.6-0.1,1.3-0.2,1.9-0.3c-0.2,0.8-0.6,1.7-1.1,2.6
	c-1.3,2.2-2.9,4.4-4.4,6.5c-0.5,0.7-1,1.4-1.5,2.2c-0.7,1.1-0.6,2.5,0.2,3.5c2.3,2.6,5.6,4.3,9.3,4.4l-0.4-19.3c0.2,0,0.4,0,0.6,0
	c0.2,0,0.4,0,0.6,0l-0.4,19.3c3.7-0.1,7-1.8,9.3-4.4c0.8-1,0.9-2.4,0.2-3.5c-0.5-0.7-1-1.4-1.5-2.2c-1.5-2.1-3.1-4.2-4.4-6.5
	c-0.5-0.9-0.9-1.7-1.1-2.6c0.6,0.1,1.3,0.1,1.9,0.3c0.2,0.7,0.5,1.4,0.9,2.1c1.4,2.2,2.8,4.4,4.3,6.6c0.6,0.9,1.2,1.8,1.7,2.7
	c0.7-1.6,1.1-3.4,1.1-5.2c0-0.7-0.1-1.3-0.1-1.9C85,16.1,86.2,17.4,87,19.1z M88.1,18.9c0,0.1,0,0.1-0.1,0.1
	c-0.1,0.1-0.2,0.1-0.3-0.1c0,0,0,0,0,0c-2-5.8-8.7-10-16.5-10s-14.5,4.2-16.5,10c0,0,0,0,0,0c0,0.1-0.2,0.1-0.3,0.1
	c0,0-0.1-0.1-0.1-0.1c0-0.1,0.6-1.9,0.8-2.4c0-0.1,0-0.1,0-0.2C55.5,7.8,62.6,1,71.2,1c0,0,0,0,0,0c0,0,0,0,0,0
	c8.6,0,15.7,6.9,16,15.4c0,0.1,0,0.1,0,0.2C87.5,17,88.1,18.8,88.1,18.9z M76.4,7c0,0.1-0.1,0.1-0.1,0.2c-0.1,0.1-0.2,0.3-0.2,0.4
	c2.4,0.7,4.5,1.8,6.4,3.3c-0.9-1.7-2.1-3.1-3.6-4.2C78.1,6.1,77,6.3,76.4,7z M72,4.9c0,0.6,0,1.4,0,2C72.6,7,73.3,7,74,7.2
	c0.3-0.7,0.9-1.2,1.7-1.6c0.2-0.1,0.5-0.2,0.7-0.3c-1.1-0.5-2.3-0.9-3.6-1C72.4,4.2,72,4.5,72,4.9z M66.1,5.2
	c0.3,0.1,0.5,0.1,0.7,0.3c0.8,0.4,1.3,1,1.7,1.6C69.1,7,69.8,7,70.6,6.9c0-0.6,0-1.4,0-2c0-0.4-0.4-0.8-0.8-0.7
	C68.4,4.4,67.2,4.7,66.1,5.2z M60.1,10.9c1.8-1.5,4-2.7,6.4-3.3c-0.1-0.1-0.1-0.3-0.2-0.4c0-0.1-0.1-0.1-0.1-0.2
	c-0.6-0.8-1.7-0.9-2.5-0.3C62.2,7.8,60.9,9.3,60.1,10.9z"/>
</svg>
