<?xml version="1.0" encoding="UTF-8" standalone="no"?>
<!-- Generator: Adobe Illustrator 14.0.0, SVG Export Plug-In . SVG Version: 6.00 Build 43363)  -->

<svg
   xmlns:dc="http://purl.org/dc/elements/1.1/"
   xmlns:cc="http://creativecommons.org/ns#"
   xmlns:rdf="http://www.w3.org/1999/02/22-rdf-syntax-ns#"
   xmlns:svg="http://www.w3.org/2000/svg"
   xmlns="http://www.w3.org/2000/svg"
   xmlns:sodipodi="http://sodipodi.sourceforge.net/DTD/sodipodi-0.dtd"
   xmlns:inkscape="http://www.inkscape.org/namespaces/inkscape"
   version="1.1"
   id="Layer_1"
   x="0px"
   y="0px"
   width="260"
   height="115"
   viewBox="0 0 260 115"
   enable-background="new 0 0 250 115"
   xml:space="preserve"
   inkscape:version="0.48.1 "
   sodipodi:docname="Spalding.svg"><metadata
   id="metadata3097"><rdf:RDF><cc:Work
       rdf:about=""><dc:format>image/svg+xml</dc:format><dc:type
         rdf:resource="http://purl.org/dc/dcmitype/StillImage" /></cc:Work></rdf:RDF></metadata><defs
   id="defs3095">
	
	
	
	
	
	
	
	
	
	
	
	
	
	
	
	
	
	
	
	
	
	
	
	
</defs><sodipodi:namedview
   pagecolor="#ffffff"
   bordercolor="#666666"
   borderopacity="1"
   objecttolerance="10"
   gridtolerance="10"
   guidetolerance="10"
   inkscape:pageopacity="0"
   inkscape:pageshadow="2"
   inkscape:window-width="1024"
   inkscape:window-height="712"
   id="namedview3093"
   showgrid="false"
   inkscape:zoom="2.04"
   inkscape:cx="125"
   inkscape:cy="57.5"
   inkscape:window-x="-4"
   inkscape:window-y="-4"
   inkscape:window-maximized="1"
   inkscape:current-layer="Layer_1" />
<path
   inkscape:connector-curvature="0"
   id="path3045"
   d="m 247.68243,103.21252 c 0,-1.30743 1.06603,-2.37245 2.37346,-2.37245 1.30946,0 2.37548,1.06502 2.37548,2.37245 0,1.30945 -1.06602,2.37548 -2.37548,2.37548 -1.30743,0 -2.37346,-1.06603 -2.37346,-2.37548 m 4.16876,0 c 0,-1.10965 -0.80129,-1.91196 -1.7953,-1.91196 -0.99198,0 -1.79429,0.80231 -1.79429,1.91196 0,1.11369 0.80231,1.91397 1.79429,1.91397 0.99401,0 1.7953,-0.80028 1.7953,-1.91397 m -2.70817,-1.35206 h 0.99908 c 0.6451,0 0.993,0.22213 0.993,0.78811 0,0.45846 -0.26372,0.68363 -0.70189,0.72218 l 0.72218,1.17861 h -0.51324 l -0.69479,-1.15934 h -0.30328 v 1.15934 h -0.50106 v -2.6889 z m 0.50106,1.15021 h 0.43919 c 0.29618,0 0.5528,-0.0406 0.5528,-0.40166 0,-0.31545 -0.28908,-0.36819 -0.5457,-0.36819 h -0.44527 v 0.76985 z" /><path
   inkscape:connector-curvature="0"
   id="path3047"
   d="m 240.26792,64.150908 c 0,-3.923302 -3.6322,-8.330424 -9.45325,-6.554389 -6.93374,2.111767 -8.67935,12.896791 -8.44809,20.711952 0.25459,8.599214 3.1423,18.076809 7.85472,18.708716 3.16055,0.405719 5.03599,-1.559989 5.05425,-3.231552 l -0.0193,-12.926206 c 0,-1.813563 -1.33684,-3.531783 -3.47904,-3.629156 v -5.11003 l 13.98209,0.003 -0.0152,32.920034 -12.18374,-2.02149 c -12.38356,-1.25266 -19.27469,-9.858973 -21.15114,-21.057831 -2.72339,-16.190215 5.90929,-28.231953 20.42693,-30.225048 0,0 9.61858,-1.532603 12.74871,-2.031638 l 0.004,14.400995 -5.321,0.0426" /><path
   inkscape:connector-curvature="0"
   id="path3049"
   d="m 62.639086,56.818553 c 4.205277,0.715079 10.477692,5.364618 10.390463,13.416111 -0.128816,11.493004 -8.333468,14.51561 -13.454655,14.486196 l -8.519084,-0.0426 0.04463,7.444943 c 0,0.799266 0.692765,2.102639 3.234595,2.705131 l 0.02231,4.17282 c -5.325061,0.625821 -10.331633,1.199917 -15.758124,1.940347 l 0.0142,-4.785452 c 2.673688,-0.359061 3.150408,-2.43837 3.150408,-3.179822 V 71.09276 c -0.02029,-1.036612 -1.181657,-1.849064 -3.111865,-2.004252 l 0.0142,-5.079601 12.404858,1.779077 v 13.46277 l 7.166011,0.04159 c 3.636256,-0.09737 5.948854,-3.961846 6.007683,-7.826319 0.08926,-5.915382 -3.313709,-8.686443 -7.205569,-9.30415 L 23.199146,58.126996 c -0.524391,-0.0568 -1.394659,0.071 -2.011351,0.622779 -0.948368,0.849981 -0.894611,2.560086 -0.438177,3.275166 0,0 8.333468,16.558405 12.304442,24.15955 2.10771,3.960831 2.643259,9.203734 -0.257632,12.712189 -3.540912,4.28845 -9.675383,3.63828 -23.6605151,6.14563 V 91.644454 l 5.0562721,0.03144 c -0.0426,1.935279 1.085299,4.916299 3.555113,6.033041 1.624904,0.735365 4.141376,0.492948 5.359547,-0.698851 3.227495,-3.171708 0.0142,-6.780578 -2.948562,-12.621917 L 9.9909656,63.795904 c -0.3509469,-0.754637 -2.4525711,-5.666879 0.8023094,-9.45528 2.727446,-3.165622 6.41746,-3.272123 8.552556,-2.978991 l 43.293255,5.45692" /><path
   inkscape:connector-curvature="0"
   id="path3051"
   d="m 211.93961,58.738617 c -2.62501,0.322547 -3.44151,2.237541 -3.44151,3.931417 V 99.680732 L 197.78001,98.449375 C 193.8486,89.622959 186.55884,71.709453 186.55884,71.709453 l 0.0142,16.859651 c 0,2.757875 1.04574,4.231649 2.97392,4.700254 v 4.349307 c -9.06579,-0.852009 -18.45514,-1.598532 -27.82319,-2.147267 l 0.0477,-4.136305 c 2.28014,-0.124759 3.4405,-1.847036 3.4405,-4.308735 l 0.0213,-21.050729 c 0,-1.180642 -1.31554,-2.717302 -3.44151,-2.562115 l -0.0477,-4.158619 12.10766,-0.856067 -0.007,28.868932 c -0.0466,1.384516 0.44731,3.868531 3.50034,4.103848 1.77401,0.152144 3.38573,-1.05487 3.38573,-2.573273 l -0.0304,-23.717316 c 0,-1.452474 -1.2557,-2.699045 -3.22445,-2.746717 l 0.0416,-4.22962 13.0256,-1.1918 12.05087,27.625404 -0.0101,-21.0629 c 0,-1.53666 -1.21817,-3.203151 -3.44963,-3.246766 l 0.0467,-4.168762 c 0,0 9.69871,-1.178614 12.76087,-1.485946 v 4.164705" /><path
   style="fill-rule:evenodd"
   inkscape:connector-curvature="0"
   id="path3053"
   d="m 160.5908,76.264662 c 0.55685,12.623946 -7.68736,18.281697 -14.46185,18.24721 l -15.74291,-0.09737 -0.005,-24.329952 c 0,-3.161565 -0.95141,-5.192188 -3.3624,-5.114087 l -0.0619,-4.644468 19.76865,0.0781 c 7.0727,0.04362 13.42829,5.942768 13.86545,15.860568 m -9.22098,2.015409 c 0,6.76435 -3.03883,11.127857 -6.7116,11.103514 l -5.25102,0.003 V 65.535424 l 4.45175,-0.003 c 4.48117,-0.15113 7.51087,5.257104 7.51087,12.74769"
   clip-rule="evenodd" /><path
   style="fill-rule:evenodd"
   inkscape:connector-curvature="0"
   id="path3055"
   d="m 100.42775,88.170485 c 0.32863,0.978797 1.38046,1.728363 2.44953,1.570132 1.7811,-0.251545 2.32578,-1.42103 2.2842,-2.89379 l -0.0142,-20.086131 c -0.005,-1.768935 -2.0286,-2.646302 -3.37863,-2.609788 l 0.0507,-4.53898 12.52251,0.49802 0.006,29.235093 c 1.19788,-0.04666 3.92026,0.0852 3.92026,0.0852 2.4972,-0.17243 3.97604,-2.277097 4.00444,-5.438662 l 5.13539,0.03043 c 0,3.621041 0.0112,6.75522 0,10.383362 -7.00981,-0.106501 -31.612606,0.838824 -38.924676,1.510289 l 0.0142,-4.724597 c 1.958608,0.05477 2.716289,-0.760723 2.366356,-1.846022 l -0.49092,-2.371427 -11.773964,-0.0061 -0.908811,2.15944 c -0.779994,2.169582 1.254686,3.211265 2.463729,3.047963 v 4.328007 l -13.867474,1.269901 0.05883,-5.064387 c 2.048881,-0.271832 3.923302,-1.993095 4.61911,-3.931417 L 79.250235,65.98983 c 0.903739,-1.742563 -0.168374,-3.07535 -2.211168,-3.275167 l 0.04767,-4.697211 13.011408,0.95344 10.329604,29.199593 m -11.807436,-6.576704 -7.983535,-0.07202 4.124134,-11.389546 3.859401,11.461561 z"
   clip-rule="evenodd" /><path
   inkscape:connector-curvature="0"
   id="path3057"
   d="m 134.91893,21.042255 1.1989,-6.358631 c -7.07675,1.2344 -10.06284,1.075156 -12.17867,3.187937 -1.72024,1.722277 -1.91702,4.306707 -1.23135,6.257201 0.69276,1.983965 3.6535,10.987883 3.7742,11.347959 0.24749,1.075155 0.13794,1.958608 -0.83883,2.783232 -0.70392,0.59235 -1.96469,0.706965 -2.68788,0.348918 -1.12182,-0.553806 -1.39162,-1.894707 -1.20398,-2.849161 l -2.46372,0.362104 -1.22629,6.254158 c 7.0798,-1.229329 10.06284,-1.075155 12.1736,-3.181851 1.72836,-1.731406 1.92412,-4.312793 1.23338,-6.263286 -0.68972,-1.980923 -3.17779,-9.843757 -3.51758,-11.039613 -0.34283,-1.189771 -0.59032,-2.106696 0.58931,-3.091579 0.70189,-0.584235 1.95861,-0.703922 2.68788,-0.345875 1.11776,0.549749 1.41191,2.014394 1.22223,2.968848 l 2.4688,-0.380361" /><path
   inkscape:connector-curvature="0"
   id="path3059"
   d="m 103.73233,22.036266 v 0.0639 l 0.0669,0.02536 c 26.21959,-16.539133 45.63832,-10.705909 45.96492,-0.636978 0.23633,7.4632 -4.39901,13.947603 -15.36153,19.427852 l -0.0264,0.07506 0.0639,0.03652 C 149.96908,35.777967 156.9089,28.477055 156.89369,20.350504 156.87543,3.4147802 123.5091,2.4227974 103.73233,22.036266" /><path
   inkscape:connector-curvature="0"
   id="path3061"
   d="m 150.94788,35.005073 -0.0812,-0.0213 c -26.249,16.749093 -45.69714,10.873269 -46.02881,0.805353 -0.24141,-7.464215 4.50348,-13.977019 15.47513,-19.462339 l -0.0203,0.01116 0.0365,-0.0781 -0.0669,-0.03651 c -15.51977,5.25406 -22.562035,12.578302 -22.553921,20.704853 0.02231,16.935723 33.695971,17.682246 53.239461,-1.85515 v -0.06796" />
</svg>