<?xml version="1.0" encoding="utf-8"?>
<!-- Generator: Adobe Illustrator 12.0.1, SVG Export Plug-In . SVG Version: 6.00 Build 51448)  -->
<!DOCTYPE svg PUBLIC "-//W3C//DTD SVG 1.1//EN" "http://www.w3.org/Graphics/SVG/1.1/DTD/svg11.dtd" [
	<!ENTITY ns_svg "http://www.w3.org/2000/svg">
	<!ENTITY ns_xlink "http://www.w3.org/1999/xlink">
]>
<svg  version="1.1" id="Calque_1" xmlns="&ns_svg;" xmlns:xlink="&ns_xlink;" width="311.589" height="256.103"
	 viewBox="0 0 311.589 256.103" overflow="visible" enable-background="new 0 0 311.589 256.103" xml:space="preserve">
<g>
	<polygon fill="#162983" points="106.95,70.55 106.95,42.735 106.627,40.933 108.836,40.933 204.069,40.933 205.696,42.735 
		205.696,70.391 	"/>
	<path fill="#E2001A" d="M107.317,70.648h98.116l-1.193,47.005c0,0-1.906,8.776-2.995,10.35c-0.241,0.355-4.478-0.525-8.707-2.248
		c-17.93,0.244-69.632-0.149-73.514-0.149c-3.201,1.482-7.803,2.698-7.803,2.698s-1.997-3.232-2.854-7.352
		C107.524,116.852,107.317,70.648,107.317,70.648z"/>
	<path fill="#FCC300" d="M107.145,92.564h97.697l-0.149,23.705c0,0,0.229,4.562-1.228,7.741c-1.447,3.188-1.529,4.009-1.529,4.009
		s-4.737-1.111-6.282-1.498c-1.542-0.389-2.799-0.871-2.799-0.871l0.102-14.368c0,0-16.395-8.773-39.266-8.773
		c-22.858,0-35.318,7.073-35.318,7.073l0.227,15.622c0,0-2.97,0.972-4.227,1.263c-1.256,0.285-2.984,1.216-2.984,1.216
		s-2.217-1.931-2.987-5.024c-0.774-3.087-0.871-5.975-0.871-8.194C107.529,112.245,107.145,92.564,107.145,92.564z"/>
	<path fill="#D0D6DA" d="M196.392,127.015c-1.511-0.443-4.057-1.523-4.057-1.523h-72.839c0,0-2.997,0.719-4.507,1.162
		c-1.519,0.453-4.067,0.662-4.067,0.662s2.906,5.569,5.85,7.349c2.941,1.798,13.752,7.611,20.183,10.471
		c5.877,2.612,16.953,8.353,18.806,9.309l0.016,0.148c0,0,0.061-0.028,0.143-0.069c0.076,0.041,0.133,0.069,0.133,0.069l0.028-0.148
		c1.843-0.956,12.928-6.697,18.805-9.309c6.43-2.859,17.591-8.115,20.522-9.913c2.951-1.78,6.529-6.959,6.529-6.959
		S197.911,127.456,196.392,127.015z"/>
	<polygon fill="#FCC300" points="110.732,40.645 109.171,38.537 110.287,36.764 104.623,21.876 99.184,18.764 96.635,11.662 
		105.176,8.442 107.062,11.995 112.834,10.333 111.615,6.451 120.055,4 122.28,9.665 126.162,9 127.273,11.773 130.385,11.33 
		129.708,7.895 134.043,7.337 133.485,2.005 137.706,1.233 143.811,1.008 144.254,4.893 149.47,4.335 149.69,0.451 161.021,0.672 
		161.469,4.782 166.239,5 166.908,0.792 171.812,1.068 176.447,1.891 176.223,7.669 180.12,8.217 181.114,9.56 180.778,11.887 
		183.666,12.441 184.448,9.338 188.555,10.222 190.328,4.671 198.319,6.894 197.883,10.893 203.993,13.22 205.431,9.338 
		214.536,12.777 211.763,21.325 206.21,22.766 201.1,36.086 202.318,39.746 200.213,41.079 172.787,34.646 157.026,32.761 
		137.375,34.31 114.617,40.645 	"/>
	<path fill="#1B171B" d="M144.644,5.232c0,0,4.834-0.313,4.902-0.152"/>
	<path fill="none" stroke="#000000" stroke-width="0.5901" d="M144.644,5.232c0,0,4.834-0.313,4.902-0.152"/>
	<path fill="#1B171B" d="M160.623,0.701l1.532,1.165c0,0,0.266,0,0.266,0.719l-0.113,2.527l0.057,0.203h-1.134l-0.316-0.374
		l0.178-2.983L161.06,1.03L160.623,0.701z"/>
	<path fill="#1B171B" d="M143.869,1.068l0.829,0.713c0,0,0.178,0.031,0.178,0.465l0.178,2.634c0,0-0.038,0.345,0.171,0.345
		l-0.815,0.032l-0.333-0.146l-0.158-0.32l-0.085-3.217L143.869,1.068z"/>
	<g>
		<path d="M160.134-0.823c-0.084,0-0.158,0.003-0.217,0.007l-10.203,0.028c-0.439,0.001-0.86,0.178-1.17,0.492
			c-0.308,0.313-0.479,0.737-0.473,1.176l0.036,2.774l-2.426,0.075l-0.076-2.252c0,0.011,0,0.022,0,0.034
			c0-0.013,0-0.026-0.001-0.04V1.456c0,0.003,0,0.007,0,0.011c-0.024-1.075-0.936-1.909-2.093-1.909
			c-0.057,0-0.113,0.003-0.17,0.009L134.272,0.5c-1.287,0.05-2.053,1.054-2.053,2.025c0,0.078,0.006,0.157,0.017,0.235
			c0.257,1.787,0.394,2.93,0.467,3.654l-2.591,0.3c-0.446,0.052-0.852,0.283-1.123,0.641c-0.271,0.357-0.385,0.81-0.315,1.254
			l0.312,1.96l-0.477,0.082c-0.032-0.202-0.063-0.419-0.086-0.62c0.001,0.01,0.002,0.02,0.003,0.03
			c-0.104-1.092-0.675-1.722-0.847-1.889c-0.31-0.301-0.723-0.465-1.146-0.465c-0.104,0-0.208,0.01-0.312,0.03l-0.991,0.191
			l-0.824-2.805c-0.011-0.038-0.023-0.075-0.037-0.111c-0.705-1.892-3.085-2.161-3.555-2.196c-0.04-0.003-0.079-0.004-0.119-0.004
			c-0.144,0-0.288,0.019-0.428,0.056l-8.466,2.261c-0.436,0.116-0.804,0.406-1.021,0.802c-0.216,0.395-0.26,0.862-0.122,1.292
			l0.854,2.662l-3.027,1l-0.852-2.641c-0.137-0.426-0.442-0.777-0.844-0.974c-0.228-0.111-0.475-0.167-0.723-0.167
			c-0.191,0-0.382,0.033-0.564,0.1l-8.851,3.226c-0.419,0.152-0.759,0.469-0.94,0.877c-0.182,0.408-0.19,0.872-0.024,1.286
			l2.875,7.133c0.133,0.329,0.368,0.606,0.671,0.79l4.573,2.788c0.18,0.219,0.511,0.896,0.704,1.452
			c0.007,0.018,0.014,0.037,0.02,0.054l4.593,11.849c-0.188,0.232-0.358,0.51-0.482,0.838c-0.187,0.493-0.32,1.246-0.001,2.167
			c-1.846,0.185-3.097,1.473-3.097,3.257c0,0.007,0,0.014,0,0.022l0.967,73.66c-0.003,0.367,0.004,3.738,1.494,7.892
			c2.05,5.722,5.962,10.259,11.312,13.121c0.03,0.016,0.06,0.031,0.091,0.045c12.995,5.958,34.181,15.81,35.711,16.884
			c0.175,0.125,0.408,0.159,0.641,0.164c0.059-0.011,0.127-0.014,0.202-0.014c0.059,0,0.121,0.002,0.187,0.004
			c0.06-0.002,0.116-0.004,0.17-0.004c0.071,0,0.136,0.003,0.191,0.013c0.235-0.004,0.471-0.037,0.648-0.165l-0.001,0.001
			c1.53-1.076,22.714-10.926,35.705-16.883c0.031-0.014,0.062-0.029,0.092-0.045c5.351-2.862,9.262-7.399,11.312-13.121
			c1.493-4.167,1.497-7.546,1.492-7.895l0.973-73.657c0-0.008,0-0.015,0-0.022c0-1.734-1.184-3-2.948-3.239
			c0.143-0.694,0.065-1.085,0.029-1.27c-0.016-0.086-0.04-0.171-0.07-0.254c-0.144-0.389-0.401-0.974-0.799-1.477
			c0.043-0.114,0.102-0.255,0.181-0.427c0.012-0.026,0.023-0.052,0.034-0.079l4.456-11.242c0.046-0.022,0.115-0.051,0.218-0.081
			c0.057-0.016,0.111-0.036,0.166-0.058l4.04-1.646c0.048-0.019,0.094-0.04,0.139-0.064c0.253-0.131,1.488-0.832,1.872-2.139
			l2.318-5.5c0.377-0.779,0.528-1.881-0.147-2.721c-0.086-0.106-0.184-0.201-0.293-0.283l-0.651-0.49
			c-0.221-0.267-0.509-0.472-0.834-0.588c0.004,0.001,0.008,0.003,0.012,0.004l-8.656-3.154c-0.183-0.066-0.374-0.1-0.565-0.1
			c-0.244,0-0.488,0.054-0.713,0.163c-0.4,0.193-0.706,0.539-0.847,0.96l-0.815,2.428l-3.34-1.033l0.448-1.557
			c0.005-0.02,0.011-0.039,0.015-0.059c0.276-1.108,0-1.883-0.279-2.338c-0.472-0.764-1.174-1.031-1.472-1.112
			c0.002,0,0.004,0.001,0.006,0.001l-7.703-2.184c-0.146-0.042-0.297-0.062-0.447-0.062c-0.285,0-0.568,0.074-0.82,0.218
			c-0.385,0.221-0.664,0.587-0.775,1.016l-1.083,4.184l-2.334-0.57c-0.129-0.032-0.26-0.047-0.391-0.047
			c-0.307,0-0.61,0.086-0.875,0.252c-0.377,0.236-0.643,0.616-0.736,1.051l-0.353,1.65c-0.269-0.052-0.539-0.104-0.792-0.154
			l0.2-1.01c0,0,0,0,0,0c0.201-1.001-0.092-1.659-0.375-2.033c-0.32-0.426-0.807-0.714-1.316-0.787l-2.271-0.367l0.531-3.787
			c0.049-0.342-0.013-0.69-0.173-0.995c-0.52-0.988-1.637-1.541-6.585-2.012c-2.479-0.235-4.847-0.336-4.947-0.341
			c-0.022-0.001-0.046-0.001-0.068-0.001c-0.862,0-1.585,0.668-1.644,1.537l-0.184,2.719c-0.702-0.03-1.558-0.07-2.253-0.104
			l0.083-2.167c0.006-0.153-0.01-0.306-0.046-0.454C162.484-0.06,161.448-0.823,160.134-0.823L160.134-0.823z M159.808-0.806
			c0.001,0,0.003,0,0.005,0C159.811-0.806,159.809-0.806,159.808-0.806L159.808-0.806z M149.718,0.859l10.271-0.028
			c0,0,0.056-0.007,0.145-0.007c0.282,0,0.89,0.074,1.039,0.687l0,0l0,0l-0.127,3.325c0,0-0.001,0.011-0.001,0.03
			c-0.001,0.109,0.045,0.474,0.692,0.474c0,0,3.761,0.189,4.483,0.196c0,0,0.349-0.079,0.349-0.653l0.247-3.647
			c0,0,9.58,0.402,10.143,1.473l0,0l0,0l-0.686,4.888c0,0-0.042,0.056-0.042,0.137c0.002,0.161,0.172,0.423,1.169,0.553l0.339,0.055
			l0,0h0.003l0,0l2.346,0.379c0,0,0.354,0.028,0.354,0.55c0,0.091-0.011,0.197-0.036,0.32l-0.396,2.001c0,0-0.044,0.129-0.043,0.279
			c0.001,0.159,0.053,0.341,0.266,0.415c0.408,0.086,3.655,0.713,3.655,0.713l0.69-3.23l3.911,0.956l1.491-5.756l7.703,2.184
			c0,0,0.659,0.15,0.661,0.973c0,0.144-0.02,0.307-0.065,0.494l-0.659,2.289c0,0-0.109,0.198-0.108,0.426
			c0.001,0.214,0.101,0.454,0.479,0.582l5.812,1.798l1.327-3.952l7.359,2.682l0,0l1.297,0.473c0,0,0.362,0.124,0.123,0.69
			l-2.899,6.516l-0.058,0.01c0.039,0.025,0.074,0.044,0.074,0.044l0.688-1.501l0,0l2.041-4.458c0.421-0.88,0.267-1.068,0.235-1.094
			l0.844,0.635c0.273,0.339-0.068,1.004-0.068,1.004l-2.382,5.648c-0.168,0.744-1.069,1.213-1.069,1.213l-4.04,1.646
			c-1.178,0.339-1.273,1.004-1.273,1.004l-4.477,11.294c-0.355,0.775-0.451,1.221-0.451,1.476c0,0.299,0.131,0.338,0.131,0.338
			c0.494,0.272,0.89,1.346,0.89,1.346c0.014,0.067,0.02,0.139,0.02,0.215c0.001,0.736-0.561,1.856-0.824,2.347h1.647l0,0h0.024
			c0,0,0.035-0.002,0.099-0.002c0.021,0,0.043,0,0.069,0.001l0,0c0.484,0.013,1.854,0.178,1.854,1.632l0,0l0,0l-0.974,73.686
			c0,0,0.001,0.02,0.001,0.058c0.001,0.95-0.22,13.231-11.935,19.499c0,0-33.868,15.527-35.979,17.041h-0.121
			c-2.116-1.514-35.983-17.041-35.983-17.041c-11.69-6.254-11.935-18.499-11.936-19.492c0-0.042,0-0.064,0-0.064l-0.968-73.686l0,0
			l0,0c0-1.531,1.512-1.633,1.916-1.633c0.062,0,0.098,0.002,0.098,0.002l0.499-0.026l0,0l0.394-0.021l0,0l1.348-0.07l0.015-0.855
			c-0.408-0.076-0.844-0.278-1.153-0.928c-0.147-0.307-0.208-0.579-0.21-0.817c0-0.074,0.004-0.145,0.014-0.212l0,0
			c0.046-0.321,0.201-0.571,0.373-0.756l0,0c0.273-0.294,0.589-0.427,0.589-0.427s0.31-0.126,0.866-0.345l-0.92,0.155l-4.951-12.772
			c0,0-0.657-1.896-1.348-2.283l-4.628-2.821l-2.875-7.133l0,0l0,0l8.851-3.226l1.084,3.359c0,0,0.072,0.654,0.785,0.654
			c0.044,0,0.091-0.002,0.14-0.008l5.504-1.818l-1.352-4.217l0,0l0,0l8.466-2.261c0,0,1.761,0.13,2.133,1.128l1.246,4.242
			l2.461-0.475c0,0,0.3,0.291,0.355,0.864c0,0,0.2,1.758,0.445,1.951c0,0,0.109,0.252,0.596,0.252c0.048,0,0.1-0.002,0.156-0.008
			l2.884-0.497l-0.567-3.566l0,0l0,0l4.072-0.471c0,0,0.001,0,0.001,0c0.035,0,0.118-0.129-0.034-1.643h0v0h0
			c-0.079-0.784-0.221-1.94-0.465-3.643c-0.003-0.023-0.006-0.045-0.01-0.068c0,0,0,0,0,0c0-0.011,0.008-0.379,0.507-0.379
			l9.139-0.941c0,0,0.446,0,0.446,0.307l0.117,3.458l0,0l0,0c0,0-0.001,0.006-0.001,0.017c0,0.079,0.041,0.417,0.746,0.417
			l4.753-0.146c0,0,0.195-0.051,0.198-0.483c0-0.037-0.002-0.076-0.004-0.119L149.718,0.859L149.718,0.859L149.718,0.859z
			 M144.77,3.757c0.01,0,0.02-0.001,0.029-0.001L144.77,3.757L144.77,3.757z M148.124,4.768c0-0.001,0-0.003,0-0.005
			c0,0,0,0,0,0.001V4.768L148.124,4.768z M162.684,5.015c0-0.001,0-0.002,0-0.003C162.684,5.013,162.684,5.014,162.684,5.015
			L162.684,5.015z M162.678,5.059c0.002-0.011,0.004-0.023,0.005-0.035C162.682,5.036,162.68,5.047,162.678,5.059L162.678,5.059z
			 M145.717,5.104c0-0.005,0.001-0.01,0.001-0.016C145.718,5.094,145.717,5.099,145.717,5.104L145.717,5.104z M145.71,5.169
			c0.003-0.021,0.005-0.042,0.007-0.062C145.715,5.127,145.713,5.148,145.71,5.169L145.71,5.169z M198.498,10.35l-0.021-0.007
			C198.484,10.345,198.491,10.347,198.498,10.35L198.498,10.35z M128.679,11.382C128.679,11.382,128.679,11.381,128.679,11.382
			C128.679,11.381,128.679,11.382,128.679,11.382L128.679,11.382z M128.733,11.492c-0.014-0.031-0.028-0.061-0.044-0.091
			C128.705,11.43,128.719,11.46,128.733,11.492L128.733,11.492z M213.989,13.124l-0.004-0.004
			C213.985,13.119,213.986,13.12,213.989,13.124L213.989,13.124z M103.812,23.367c-0.009-0.005-0.017-0.01-0.025-0.015
			C103.795,23.357,103.804,23.362,103.812,23.367L103.812,23.367z M207.627,24.527c0.001-0.007,0.002-0.014,0.003-0.021
			C207.629,24.513,207.628,24.52,207.627,24.527L207.627,24.527z M207.625,24.543c0-0.002,0-0.005,0.001-0.008
			C207.625,24.538,207.625,24.541,207.625,24.543L207.625,24.543z M213.985,13.119l0.004,0.004L213.985,13.119L213.985,13.119z"/>
	</g>
	<path fill="none" stroke="#000000" stroke-width="0.5901" d="M201.492,37.815c-47.157-19.358-90.521-0.64-90.521-0.64
		s-1.522,0.64-0.766,2.213c0.761,1.583,2.264,0.82,2.264,0.82"/>
	<path fill="none" stroke="#000000" stroke-width="0.5901" d="M111.013,127.582c0,0,6.639-1.438,7.136-1.944l9.446,0.038"/>
	<path fill="none" stroke="#000000" stroke-width="0.5901" d="M179.699,125.733l12.652-0.028c0,0,4.182,1.624,8.501,1.877"/>
	<line fill="none" stroke="#000000" stroke-width="0.5901" x1="107.983" y1="93.099" x2="204.3" y2="92.754"/>
	<line fill="none" stroke="#000000" stroke-width="0.5901" x1="107.855" y1="97.621" x2="204.171" y2="97.297"/>
	<line fill="none" stroke="#000000" stroke-width="0.5901" x1="108.115" y1="96.591" x2="204.183" y2="96.329"/>
	<line fill="none" stroke="#000000" stroke-width="0.5901" x1="111.189" y1="93.169" x2="111.189" y2="96.573"/>
	<line fill="none" stroke="#000000" stroke-width="0.5901" x1="117.487" y1="93.118" x2="117.487" y2="96.512"/>
	<line fill="none" stroke="#000000" stroke-width="0.5901" x1="123.699" y1="93.118" x2="123.699" y2="96.512"/>
	<line fill="none" stroke="#000000" stroke-width="0.5901" x1="129.83" y1="93.194" x2="129.83" y2="96.591"/>
	<line fill="none" stroke="#000000" stroke-width="0.5901" x1="149.138" y1="93.118" x2="149.138" y2="96.512"/>
	<line fill="none" stroke="#000000" stroke-width="0.5901" x1="142.704" y1="93.118" x2="142.704" y2="96.512"/>
	<line fill="none" stroke="#000000" stroke-width="0.5901" x1="155.649" y1="92.963" x2="155.649" y2="96.367"/>
	<line fill="none" stroke="#000000" stroke-width="0.5901" x1="162.01" y1="92.963" x2="162.01" y2="96.367"/>
	<line fill="none" stroke="#000000" stroke-width="0.5901" x1="167.918" y1="92.963" x2="167.918" y2="96.367"/>
	<line fill="none" stroke="#000000" stroke-width="0.5901" x1="174.649" y1="92.893" x2="174.649" y2="96.291"/>
	<line fill="none" stroke="#000000" stroke-width="0.5901" x1="180.852" y1="92.817" x2="180.852" y2="96.221"/>
	<line fill="none" stroke="#000000" stroke-width="0.5901" x1="187.352" y1="92.754" x2="187.352" y2="96.151"/>
	<line fill="none" stroke="#000000" stroke-width="0.5901" x1="193.342" y1="92.754" x2="193.342" y2="96.151"/>
	<line fill="none" stroke="#000000" stroke-width="0.5901" x1="199.554" y1="92.814" x2="199.554" y2="96.221"/>
	<line fill="none" stroke="#000000" stroke-width="0.5901" x1="136.383" y1="93.083" x2="136.383" y2="96.49"/>
	<path fill="none" stroke="#000000" stroke-width="0.5901" d="M116.431,105.567c7.264-4.116,37.56-16.021,78.032,1.472"/>
	<line fill="none" stroke="#000000" stroke-width="0.5901" x1="171.186" y1="99.704" x2="170.388" y2="104.272"/>
	<line fill="none" stroke="#000000" stroke-width="0.5901" x1="139.938" y1="103.595" x2="139.067" y2="98.931"/>
	<line fill="none" stroke="#000000" stroke-width="0.5901" x1="191.376" y1="105.669" x2="203.86" y2="105.669"/>
	<line fill="none" stroke="#000000" stroke-width="0.5901" x1="108.337" y1="105.669" x2="116.553" y2="105.669"/>
	<g>
		<line fill="none" stroke="#000000" stroke-width="0.5901" x1="193.234" y1="115.196" x2="203.803" y2="115.196"/>
		<line fill="none" stroke="#000000" stroke-width="0.5901" x1="192.864" y1="120.034" x2="203.515" y2="120.034"/>
		<line fill="none" stroke="#000000" stroke-width="0.5901" x1="192.931" y1="124.84" x2="202.227" y2="124.875"/>
		<line fill="none" stroke="#000000" stroke-width="0.5901" x1="180.579" y1="101.727" x2="204.107" y2="101.727"/>
		<line fill="none" stroke="#000000" stroke-width="0.5901" x1="187.257" y1="97.494" x2="187.257" y2="101.582"/>
		<line fill="none" stroke="#000000" stroke-width="0.5901" x1="193.203" y1="97.453" x2="193.203" y2="101.705"/>
		<line fill="none" stroke="#000000" stroke-width="0.5901" x1="174.617" y1="97.307" x2="174.617" y2="100.359"/>
		<line fill="none" stroke="#000000" stroke-width="0.5901" x1="166.687" y1="97.396" x2="166.687" y2="98.862"/>
		<line fill="none" stroke="#000000" stroke-width="0.5901" x1="180.778" y1="97.338" x2="180.778" y2="101.604"/>
		<line fill="none" stroke="#000000" stroke-width="0.5901" x1="199.44" y1="97.589" x2="199.44" y2="101.768"/>
		<line fill="none" stroke="#000000" stroke-width="0.5901" x1="199.44" y1="105.764" x2="199.44" y2="110.906"/>
		<line fill="none" stroke="#000000" stroke-width="0.5901" x1="199.44" y1="115.091" x2="199.44" y2="120.236"/>
		<line fill="none" stroke="#000000" stroke-width="0.5901" x1="199.44" y1="124.805" x2="199.44" y2="127.515"/>
		<line fill="none" stroke="#000000" stroke-width="0.5901" x1="184.252" y1="101.604" x2="184.252" y2="103.06"/>
		<line fill="none" stroke="#000000" stroke-width="0.5901" x1="190.259" y1="101.604" x2="190.259" y2="105.377"/>
		<line fill="none" stroke="#000000" stroke-width="0.5901" x1="196.609" y1="101.774" x2="196.609" y2="105.735"/>
		<line fill="none" stroke="#000000" stroke-width="0.5901" x1="196.609" y1="111.042" x2="196.609" y2="115"/>
		<line fill="none" stroke="#000000" stroke-width="0.5901" x1="196.609" y1="120.176" x2="196.609" y2="124.999"/>
		<polyline fill="none" stroke="#000000" stroke-width="0.5901" points="204.304,110.798 193.025,110.934 193.066,126.059 		"/>
	</g>
	<g>
		<line fill="none" stroke="#000000" stroke-width="0.5901" x1="118.163" y1="115.196" x2="108.064" y2="115.196"/>
		<line fill="none" stroke="#000000" stroke-width="0.5901" x1="118.095" y1="120.034" x2="108.319" y2="120.034"/>
		<line fill="none" stroke="#000000" stroke-width="0.5901" x1="118.353" y1="124.84" x2="110.114" y2="124.875"/>
		<line fill="none" stroke="#000000" stroke-width="0.5901" x1="125.558" y1="101.727" x2="108.232" y2="101.727"/>
		<line fill="none" stroke="#000000" stroke-width="0.5901" x1="124.915" y1="97.494" x2="124.915" y2="101.582"/>
		<line fill="none" stroke="#000000" stroke-width="0.5901" x1="118.966" y1="97.453" x2="118.966" y2="101.705"/>
		<line fill="none" stroke="#000000" stroke-width="0.5901" x1="137.551" y1="97.307" x2="137.551" y2="98.88"/>
		<line fill="none" stroke="#000000" stroke-width="0.5901" x1="131.395" y1="97.338" x2="131.395" y2="100.042"/>
		<line fill="none" stroke="#000000" stroke-width="0.5901" x1="112.736" y1="97.589" x2="112.736" y2="101.768"/>
		<line fill="none" stroke="#000000" stroke-width="0.5901" x1="112.736" y1="105.764" x2="112.736" y2="110.906"/>
		<line fill="none" stroke="#000000" stroke-width="0.5901" x1="112.736" y1="115.091" x2="112.736" y2="120.236"/>
		<line fill="none" stroke="#000000" stroke-width="0.5901" x1="112.736" y1="124.805" x2="112.736" y2="127.117"/>
		<line fill="none" stroke="#000000" stroke-width="0.5901" x1="121.913" y1="101.604" x2="121.913" y2="103.126"/>
		<line fill="none" stroke="#000000" stroke-width="0.5901" x1="115.57" y1="101.774" x2="115.57" y2="105.735"/>
		<line fill="none" stroke="#000000" stroke-width="0.5901" x1="115.57" y1="111.042" x2="115.57" y2="115"/>
		<line fill="none" stroke="#000000" stroke-width="0.5901" x1="115.57" y1="120.176" x2="115.57" y2="124.999"/>
		<line fill="none" stroke="#000000" stroke-width="0.5901" x1="108.038" y1="110.798" x2="118.095" y2="110.798"/>
	</g>
	<path fill="none" stroke="#000000" stroke-width="0.5901" d="M150.884,102.797c-10.094,0.244-21.307,2.235-32.835,7.393
		l0.114,15.293"/>
	<path fill="none" stroke="#000000" stroke-width="0.5901" d="M193.038,125.743v-13.97c0,0-17.825-9.574-42.154-8.976"/>
	<path fill="none" stroke="#000000" stroke-width="0.5901" d="M173.668,136.213c0,0,9.302-13.827,11.803-26.105l-15.723,4.505
		c0,0,0.69,7.061-4.642,8.308c0,0-12.695,4.151-39.865-2.742c0,0-0.893,0.361,0.109,1.248l0.457,0.355c0,0,1.642,5.154,9.641,14.412
		"/>
	<path fill="none" stroke="#000000" stroke-width="0.5901" d="M211.01,20.122l2.899-6.516c0.238-0.566-0.123-0.69-0.123-0.69
		l-8.656-3.154l-1.327,3.952l-5.812-1.798c-0.782-0.263-0.37-1.007-0.37-1.007l0.658-2.289c0.313-1.26-0.596-1.466-0.596-1.466
		l-7.703-2.185l-1.491,5.756l-3.91-0.956l-0.69,3.229c0,0-3.248-0.627-3.656-0.713c-0.412-0.142-0.222-0.693-0.222-0.693
		l0.396-2.001c0.171-0.833-0.316-0.871-0.316-0.871L177.4,8.287c-1.501-0.196-1.127-0.69-1.127-0.69l0.687-4.888
		c-0.563-1.07-10.144-1.473-10.144-1.473l-0.247,3.647c0,0.573-0.349,0.652-0.349,0.652c-0.722-0.006-4.483-0.196-4.483-0.196
		c-0.76,0-0.69-0.503-0.69-0.503l0.127-3.325c-0.196-0.807-1.185-0.681-1.185-0.681l-10.271,0.028l0.049,3.796
		c0.036,0.542-0.194,0.602-0.194,0.602l-4.753,0.146c-0.798,0-0.744-0.434-0.744-0.434l-0.117-3.458
		c0-0.307-0.447-0.307-0.447-0.307l-9.138,0.94c-0.507,0-0.507,0.38-0.507,0.38c0.818,5.693,0.507,5.354,0.507,5.354l-4.072,0.472
		l0.567,3.565l-2.885,0.497c-0.62,0.06-0.752-0.244-0.752-0.244c-0.245-0.193-0.444-1.95-0.444-1.95
		c-0.056-0.573-0.355-0.864-0.355-0.864l-2.461,0.475l-1.246-4.242c-0.372-0.998-2.133-1.127-2.133-1.127l-8.466,2.261l1.352,4.217
		l-5.504,1.817c-0.843,0.092-0.925-0.646-0.925-0.646l-1.084-3.359l-8.852,3.226l2.875,7.133l4.629,2.821
		c0.69,0.386,1.348,2.283,1.348,2.283l4.951,12.772"/>
	<path fill="none" stroke="#000000" stroke-width="0.5901" d="M105.226,22.453c0,0,49.399-20.618,100.87,0.88"/>
	<path fill="none" stroke="#000000" stroke-width="0.5901" d="M124.38,32.34l-4.295-14.115c0,0,2.417-2.28,2.023-4.702"/>
	<path fill="none" stroke="#000000" stroke-width="0.5901" d="M169.14,29.652l1.336-15.458c0,0,2.831-0.535,2.831-3.631"/>
	<path fill="none" stroke="#000000" stroke-width="0.5901" d="M187.688,32.99l3.897-14.521c0,0-4.392-1.662-3.448-4.768"/>
	<line fill="#1B171B" x1="105.543" y1="22.225" x2="101.712" y2="19.831"/>
	<line fill="none" stroke="#000000" stroke-width="0.5901" x1="105.543" y1="22.225" x2="101.712" y2="19.831"/>
	<path d="M188.036,41.272c-10.949-4.832-23.839-7.355-34.051-7.345c-14.334,0.006-26.88,3.774-33.551,7.219l-9.092,0.025
		l0.015-1.042c0,0,39.503-18.402,87.349,0.547v0.656L188.036,41.272z"/>
	<path fill="none" stroke="#000000" stroke-width="0.5901" d="M120.435,41.146"/>
	<path fill="none" stroke="#000000" stroke-width="0.5901" d="M115.787,35.06l-1.941-5.743c0,0-0.897-2.08,0.961-2.698
		c0,0,1.624-0.722,2.228,1.659l2.082,5.968"/>
	<path fill="none" stroke="#000000" stroke-width="0.5901" d="M191.987,34.55l2.267-6.117c0,0,0.665-2.34,2.564-1.69
		c0,0,1.779,0.393,0.685,2.802l-2.109,5.87"/>
	<path fill="none" stroke="#000000" stroke-width="0.5901" d="M152.732,28.791l-0.098-7.248c0,0-0.033-2.507,2.503-2.507
		c0,0,2.68-0.424,2.743,2.786l0.069,7.152"/>
	<path fill="none" stroke="#000000" stroke-width="0.5901" d="M141.761,30.029l-1.511-15.96c0,0-3.364-1.086-2.965-3.505"/>
	<path fill="none" stroke="#000000" stroke-width="0.5901" d="M190.198,5.225l-1.789,6.608c0,0-0.178,0.456,0.342,0.659
		c0,0,16.895,4.714,22.252,7.517l3.027-6.604l0.051-0.244l0.822,0.608c0,0,0.206,0.162-0.202,1.194l-2.549,6.035
		c0,0-0.472,0.472-0.839,0.627l-4.832,2.029c0,0-0.271,0.155-0.531,0.827l-4.825,12.126c0,0-0.336,0.738,0.31,1.156
		c0,0,1.97,0.126-0.589,3.787"/>
	<line fill="none" stroke="#FFFFFF" stroke-width="1.1177" x1="107.503" y1="71.056" x2="204.709" y2="71.056"/>
	<path d="M176.194,2.192c0,0,1.415,0.117,1.488,1.896l-0.976,7.045c0,0,0.057,0.731-1.305,0.627c0,0-15.409-3.182-38.801-0.741
		c0,0-1.819-0.744-1.888-1.13c0,0-0.566-6.25-0.847-7.507l0.507-0.238c0,0,0.926,6.671,0.808,7.102c0,0,0.118,0.437,0.501,0.354
		c0,0,20.514-3.074,38.926,0.168c0,0,0.446,0.12,0.557-0.507L176.194,2.192z"/>
	<path d="M99.989,19.109c0,0,12.669-5.519,21.793-7.105c0,0,0.484,0.019,0.431-0.579l-1.528-5.959c0,0-0.235-1.003-0.712-0.82
		l0.734-0.143c0,0,1.651-0.111,2.058,1.152l1.997,7.618c0,0-0.109,0.209-0.519,0.209c0,0-10.188,1.586-22.413,6.661L99.989,19.109z"
		/>
	<path d="M106.041,8.531l0.963,0.06c0,0,0.29,0.044,0.54,0.782l0.717,2.146c0,0,0.135,0.253,0.538,0.253l4.101-1.396l0.289-0.114
		l0.132,0.58l-5.174,1.751c0,0-0.934,0.323-1.143-0.643L106.041,8.531z"/>
	<path d="M126.412,9.18l0.92,0.212c0,0,0.29,0.073,0.471,0.576l0.405,1.637c0,0,0.029,0.323,2.353-0.313l0.309,0.624l-2.885,0.497
		l-0.617-0.085l-0.275-0.503l-0.331-2.042C126.761,9.781,126.697,9.392,126.412,9.18"/>
	<path d="M156.706,28.854v-6.969c0,0,0.096-2.967-2.906-2.504l-1.18,1.396l0.078,8.15L156.706,28.854z"/>
	<path d="M118.299,34.247l-2.072-5.886c0,0-0.579-2.115-2.381-0.842l-0.312,0.558l2.167,7.035L118.299,34.247z"/>
	<path d="M194.7,35.339l2.201-6.231c0,0,0.928-2.137-1.343-2.179l-0.608,0.26l-2.894,7.263L194.7,35.339z"/>
	<path d="M197.958,7.122l1.482,1.352c0,0,0.431,0.368,0.228,1.083l-0.551,1.735c0,0-0.152,0.361,0.374,0.535l4.391,1.399
		l-0.126,0.434l-5.813-1.719c0,0-0.681-0.178-0.446-0.972l0.785-2.501l-0.019-0.598l-0.605-0.82L197.958,7.122z"/>
	<path d="M180.323,8.658l1.241,1.124c0,0,0.233,0.149,0.062,0.855l-0.25,1.203c0,0-0.095,0.193,0.7,0.304l1.887,0.374l-0.051,0.357
		l-3.444-0.62c0,0-0.501-0.146-0.459-0.662l0.459-2.413C180.469,9.18,180.44,8.791,180.323,8.658"/>
	<path d="M188.707,10.481l-0.491,1.672l-0.256,1.589c0,0-0.07,0.326,0.674,0.475c0,0,11.857,3.106,20.118,6.598
		c0,0,0.269,0.171-0.063,0.304l-3.265,1.143l-0.807,0.938L199.779,36c0,0-0.504,1.273,0.506,2.017c0,0,1.045,0.608,0.305,1.814
		c0,0-0.599,1.197-1.853,0.655l-0.703,1.108l3.115-0.048c0,0,1.118-1.918,0.944-2.821c0,0-0.396-1.073-0.89-1.346
		c0,0-0.45-0.133,0.319-1.814l4.478-11.294c0,0,0.095-0.665,1.272-1.004l4.04-1.646c0,0,0.902-0.469,1.07-1.213l2.381-5.648
		c0,0,0.342-0.665,0.069-1.003l-0.849-0.64c0,0,0.231,0.133-0.23,1.099l-2.729,5.958c0,0-4.348-2.935-22.274-7.684
		C188.751,12.492,188.149,12.064,188.707,10.481"/>
	<path fill="#FFFFFF" stroke="#000000" stroke-width="0.5901" d="M165.838,75.106c0,0-0.726,0.427-0.267,1.175
		c0,0,1.245,1.067,0.19,1.713c0,0-0.387,0.316-1.511,0.022c0,0-1.174-0.313-1.374,0.206c0,0-0.069-0.94,1.514-0.766
		c0.545,0,1.558-0.32,0.583-1.656"/>
	<path fill="#FFFFFF" stroke="#000000" stroke-width="0.5901" d="M170.885,73.88c0,0-0.525,0.731-3.423,0.076
		c0,0-1.59-0.678-2.549,0.171c0,0-0.655,0.998,0.513,2.153c0,0-0.655-1.226,1.605-0.719c0,0,2.91,1.095,4.027-0.042"/>
	<path fill="#FFFFFF" d="M138.939,79.545c0,0.481,0.403,0.88,0.88,0.88c0.48,0,0.885-0.399,0.885-0.88
		c0-0.475-0.404-0.871-0.885-0.871C139.343,78.674,138.939,79.07,138.939,79.545"/>
	<path fill="#FFFFFF" d="M138.881,97.016c0,0.526,0.411,0.944,0.938,0.944c0.521,0,0.935-0.418,0.935-0.944
		c0-0.513-0.413-0.931-0.935-0.931C139.292,96.085,138.881,96.503,138.881,97.016"/>
	<path fill="#FFFFFF" stroke="#000000" stroke-width="0.5901" d="M138.881,97.016c0,0.526,0.411,0.944,0.938,0.944
		c0.521,0,0.935-0.418,0.935-0.944c0-0.513-0.413-0.931-0.935-0.931C139.292,96.085,138.881,96.503,138.881,97.016z"/>
	<path fill="#FFFFFF" d="M136.999,127.604c0,0.998,0.799,1.798,1.792,1.798c0.984,0,1.782-0.801,1.782-1.798
		c0-0.972-0.798-1.779-1.782-1.779C137.798,125.825,136.999,126.632,136.999,127.604"/>
	<path fill="none" stroke="#000000" stroke-width="0.5901" d="M136.999,127.604c0,0.998,0.799,1.798,1.792,1.798
		c0.984,0,1.782-0.801,1.782-1.798c0-0.972-0.798-1.779-1.782-1.779C137.798,125.825,136.999,126.632,136.999,127.604z"/>
	<path fill="#E3DEC3" stroke="#000000" stroke-width="0.5901" d="M141.904,140.604l-3.772-13c0,0-0.117-0.646,0.423-0.77
		c0,0,0.589-0.057,0.767,0.599l3.84,13.022L141.904,140.604z"/>
	<path fill="#FFFFFF" d="M144.183,128.199c0,0.988,0.803,1.792,1.79,1.792c0.983,0,1.776-0.804,1.776-1.792
		c0-0.985-0.793-1.792-1.776-1.792C144.985,126.407,144.183,127.214,144.183,128.199"/>
	<path fill="none" stroke="#000000" stroke-width="0.5901" d="M144.183,128.199c0,0.988,0.803,1.792,1.79,1.792
		c0.983,0,1.776-0.804,1.776-1.792c0-0.985-0.793-1.792-1.776-1.792C144.985,126.407,144.183,127.214,144.183,128.199z"/>
	<path fill="#E3DEC3" stroke="#000000" stroke-width="0.5901" d="M148.413,139.041l-3.102-10.841c0,0-0.117-0.652,0.421-0.776
		c0,0,0.586-0.057,0.775,0.605l3.094,10.743L148.413,139.041z"/>
	<path fill="none" stroke="#000000" stroke-width="0.5901" d="M148.413,139.041l-3.102-10.841c0,0-0.117-0.652,0.421-0.776
		c0,0,0.586-0.057,0.775,0.605l3.094,10.743L148.413,139.041z"/>
	<path fill="#FFFFFF" d="M151.103,128.532c0,0.981,0.811,1.789,1.79,1.789c1.006,0,1.782-0.808,1.782-1.789
		c0-0.984-0.776-1.792-1.782-1.792C151.913,126.74,151.103,127.547,151.103,128.532"/>
	<path fill="none" stroke="#000000" stroke-width="0.5901" d="M151.103,128.532c0,0.981,0.811,1.789,1.79,1.789
		c1.006,0,1.782-0.808,1.782-1.789c0-0.984-0.776-1.792-1.782-1.792C151.913,126.74,151.103,127.547,151.103,128.532z"/>
	<path fill="#E3DEC3" stroke="#000000" stroke-width="0.5901" d="M155.854,140.604l-3.615-12.073c0,0-0.117-0.655,0.421-0.775
		c0,0,0.595-0.054,0.768,0.592l3.688,12.342L155.854,140.604z"/>
	<path fill="none" stroke="#000000" stroke-width="0.5901" d="M155.854,140.604l-3.615-12.073c0,0-0.117-0.655,0.421-0.775
		c0,0,0.595-0.054,0.768,0.592l3.688,12.342L155.854,140.604z"/>
	<path fill="#FFFFFF" d="M158.271,128.187c0,0.982,0.795,1.786,1.789,1.786c0.987,0,1.789-0.804,1.789-1.786
		c0-0.984-0.802-1.792-1.789-1.792C159.065,126.395,158.271,127.202,158.271,128.187"/>
	<path fill="none" stroke="#000000" stroke-width="0.5901" d="M158.271,128.187c0,0.982,0.795,1.786,1.789,1.786
		c0.987,0,1.789-0.804,1.789-1.786c0-0.984-0.802-1.792-1.789-1.792C159.065,126.395,158.271,127.202,158.271,128.187z"/>
	<path fill="#E3DEC3" stroke="#000000" stroke-width="0.5901" d="M162.741,139.734l-3.354-11.547c0,0-0.101-0.662,0.428-0.779
		c0,0,0.608-0.057,0.775,0.595l3.347,11.519L162.741,139.734z"/>
	<path fill="#FFFFFF" d="M165.183,127.67c0,0.979,0.798,1.786,1.792,1.786c0.975,0,1.785-0.808,1.785-1.786
		c0-0.994-0.811-1.798-1.785-1.798C165.98,125.872,165.183,126.676,165.183,127.67"/>
	<path fill="none" stroke="#000000" stroke-width="0.5901" d="M165.183,127.67c0,0.979,0.798,1.786,1.792,1.786
		c0.975,0,1.785-0.808,1.785-1.786c0-0.994-0.811-1.798-1.785-1.798C165.98,125.872,165.183,126.676,165.183,127.67z"/>
	<path fill="#E3DEC3" stroke="#000000" stroke-width="0.5901" d="M170.188,140.95l-3.878-13.279c0,0-0.117-0.665,0.424-0.775
		c0,0,0.589-0.063,0.772,0.589l3.983,13.484L170.188,140.95z"/>
	<path fill="none" stroke="#000000" stroke-width="0.5901" d="M162.741,139.734l-3.354-11.547c0,0-0.101-0.662,0.428-0.779
		c0,0,0.608-0.057,0.775,0.595l3.347,11.519L162.741,139.734z"/>
	<path fill="none" stroke="#000000" stroke-width="0.5901" d="M170.188,140.95l-3.878-13.279c0,0-0.117-0.665,0.424-0.775
		c0,0,0.589-0.063,0.772,0.589l3.983,13.484L170.188,140.95z"/>
	<path fill="none" stroke="#000000" stroke-width="0.5901" d="M129.68,140.579c0,0,2.446,0.244,2.999-0.659c0,0,0-0.57,0.807-0.244
		c0,0,7.771,2.688,14.791-0.57c0,0,0.686-0.561,1.692-0.178c0,0,6,3.436,12.699,0.871c0,0,0.634-0.51,1.447-0.253
		c0,0,6.896,3.255,13.779,0.253c0,0,0.449-0.51,1.377,0.12c0,0,2.724,0.709,2.91,0.709"/>
	<path fill="#FFFFFF" stroke="#000000" stroke-width="0.5901" d="M134.087,75.524c0,0-0.729,0.427-0.263,1.165
		c0,0,1.238,1.07,0.188,1.732c0,0-0.38,0.307-1.521,0.006c0,0-1.16-0.313-1.369,0.206c0,0-0.049-0.931,1.519-0.769
		c0.546,0,1.551-0.313,0.585-1.656"/>
	<path fill="#FFFFFF" stroke="#000000" stroke-width="0.5901" d="M139.552,73.909c0,0-0.508,0.722-3.409,0.066
		c0,0-2.951-0.753-3.27,0.998c0,0-0.15,1.117,0.951,1.703c0,0-0.38-1.602,1.868-1.096c0,0,2.908,1.096,4.032-0.047"/>
	<polygon fill="#E3DEC3" stroke="#000000" stroke-width="0.5901" points="169.938,113.961 170.66,73.745 170.85,73.174 
		171.157,73.868 171.736,113.527 	"/>
	<polygon fill="#E3DEC3" stroke="#000000" stroke-width="0.5901" points="138.837,123.042 139.562,73.745 139.747,73.174 
		140.061,73.868 140.836,123.26 	"/>
	<path fill="#FFFFFF" d="M169.963,79.57c0,0.479,0.393,0.871,0.887,0.871c0.484,0,0.874-0.393,0.874-0.871
		c0-0.49-0.39-0.88-0.874-0.88C170.355,78.69,169.963,79.08,169.963,79.57"/>
	<path fill="#E3DEC3" stroke="#000000" stroke-width="0.5901" d="M169.963,79.57c0,0.479,0.393,0.871,0.887,0.871
		c0.484,0,0.874-0.393,0.874-0.871c0-0.49-0.39-0.88-0.874-0.88C170.355,78.69,169.963,79.08,169.963,79.57z"/>
	<path fill="#FFFFFF" d="M169.896,97.035c0,0.525,0.428,0.943,0.953,0.943c0.513,0,0.935-0.418,0.935-0.943
		c0-0.522-0.422-0.94-0.935-0.94C170.324,96.094,169.896,96.512,169.896,97.035"/>
	<path fill="none" stroke="#000000" stroke-width="0.5901" d="M169.896,97.035c0,0.525,0.428,0.943,0.953,0.943
		c0.513,0,0.935-0.418,0.935-0.943c0-0.522-0.422-0.94-0.935-0.94C170.324,96.094,169.896,96.512,169.896,97.035z"/>
	<path fill="#E3DEC3" stroke="#000000" stroke-width="0.5901" d="M169.963,72.988c0,0.481,0.393,0.88,0.877,0.88
		c0.494,0,0.884-0.399,0.884-0.88c0-0.472-0.39-0.874-0.884-0.874C170.355,72.114,169.963,72.516,169.963,72.988"/>
	<path fill="none" stroke="#000000" stroke-width="0.5901" d="M169.963,72.988c0,0.481,0.393,0.88,0.877,0.88
		c0.494,0,0.884-0.399,0.884-0.88c0-0.472-0.39-0.874-0.884-0.874C170.355,72.114,169.963,72.516,169.963,72.988z"/>
	<path fill="#FFFFFF" stroke="#000000" stroke-width="0.5901" d="M140.173,80.339"/>
	<path fill="none" stroke="#000000" stroke-width="0.5901" d="M174.39,112.932"/>
	<path fill="none" stroke="#000000" stroke-width="0.5901" d="M169.57,134.472c0,0,6.57,4.569,15.837,0.874c0,0,0.494-0.37,1.077,0
		c0,0,2.32,1.298,4.382,1.298"/>
	<path fill="none" stroke="#000000" stroke-width="0.5901" d="M163.131,136.669c1.678-0.136,3.477-0.602,5.315-1.668"/>
	<path fill="none" stroke="#000000" stroke-width="0.5901" d="M155.405,135c0.902,0.481,3.359,1.634,6.452,1.697"/>
	<path fill="none" stroke="#000000" stroke-width="0.5901" d="M149.074,136.935c1.547-0.193,3.283-0.722,5.129-1.817"/>
	<path fill="none" stroke="#000000" stroke-width="0.5901" d="M141.585,135.184c0.91,0.624,3.146,1.871,6.22,1.836"/>
	<path fill="none" stroke="#000000" stroke-width="0.5901" d="M119.841,136.039c0,0,3.695,0.313,5.572-0.874c0,0,0-0.38,0.682,0
		c0,0,5.055,3.302,14.165-0.294"/>
	<path fill="none" stroke="#000000" stroke-width="0.5901" d="M168.716,120.179l15.268-3.961c0,0,1.767-0.769,0.531-1.808
		l-15.72,4.259C168.795,118.669,167.643,119.92,168.716,120.179z"/>
	<path fill="none" stroke="#000000" stroke-width="0.5901" d="M169.501,115.807l15.885-4.335c0,0,1.567-1.111,0.164-1.801
		l-16.049,4.499C169.501,114.17,168.5,115.341,169.501,115.807z"/>
	<line fill="none" stroke="#000000" stroke-width="0.4117" x1="116.536" y1="105.564" x2="118.217" y2="110.25"/>
	<line fill="none" stroke="#000000" stroke-width="0.4117" x1="194.587" y1="106.793" x2="192.905" y2="111.482"/>
	<line fill="none" stroke="#000000" stroke-width="0.4117" x1="121.864" y1="103.187" x2="123.314" y2="108.028"/>
	<line fill="none" stroke="#000000" stroke-width="0.4117" x1="127.464" y1="101.094" x2="128.731" y2="106.299"/>
	<line fill="none" stroke="#000000" stroke-width="0.4117" x1="133.146" y1="99.85" x2="134.125" y2="104.988"/>
	<line fill="none" stroke="#000000" stroke-width="0.4117" x1="144.907" y1="98.127" x2="145.329" y2="103.165"/>
	<line fill="none" stroke="#000000" stroke-width="0.4117" x1="150.539" y1="97.861" x2="150.621" y2="102.915"/>
	<line fill="none" stroke="#000000" stroke-width="0.4117" x1="156.596" y1="97.659" x2="156.481" y2="102.892"/>
	<line fill="none" stroke="#000000" stroke-width="0.4117" x1="162.675" y1="98.304" x2="162.308" y2="103.266"/>
	<line fill="none" stroke="#000000" stroke-width="0.4117" x1="168.532" y1="99.242" x2="167.949" y2="103.785"/>
	<line fill="none" stroke="#000000" stroke-width="0.4117" x1="174.364" y1="100.258" x2="173.452" y2="105.279"/>
	<line fill="none" stroke="#000000" stroke-width="0.4117" x1="180.082" y1="101.809" x2="178.999" y2="106.372"/>
	<line fill="none" stroke="#000000" stroke-width="0.4117" x1="185.566" y1="103.459" x2="184.217" y2="108.107"/>
	<line fill="none" stroke="#000000" stroke-width="0.4117" x1="191.037" y1="105.647" x2="189.429" y2="110.228"/>
	<line fill="none" stroke="#000000" stroke-width="0.5901" x1="107.503" y1="41.456" x2="204.709" y2="41.456"/>
	<path fill="#FFFFFF" stroke="#000000" stroke-width="0.5901" d="M157.355,86l23.506,3.872c0,0-8.169,5.304-10.322,10.464
		c-2.144,5.158,0.396,10.889,0.396,10.889s-6.563-0.434-13.723-6.738C150.05,98.181,151.769,91.022,157.355,86z"/>
	<path fill="#FFFFFF" stroke="#000000" stroke-width="0.5901" d="M127.313,89.765l23.502,3.869c0,0-8.17,5.3-10.32,10.461
		c-2.149,5.158-0.648,10.889-0.648,10.889s-5.514-0.431-12.678-6.731C120.004,101.945,121.724,94.78,127.313,89.765z"/>
	<path fill="#E3DEC3" stroke="#000000" stroke-width="0.5901" d="M138.939,79.545c0,0.481,0.403,0.88,0.88,0.88
		c0.48,0,0.885-0.399,0.885-0.88c0-0.475-0.404-0.871-0.885-0.871C139.343,78.674,138.939,79.07,138.939,79.545z"/>
	<path fill="#E3DEC3" stroke="#000000" stroke-width="0.5901" d="M138.939,72.969c0,0.491,0.403,0.88,0.88,0.88
		c0.48,0,0.885-0.39,0.885-0.88c0-0.481-0.404-0.88-0.885-0.88C139.343,72.088,138.939,72.487,138.939,72.969z"/>
	<g>
		<g>
			<path fill="#FCC300" stroke="#000000" stroke-width="0.5901" d="M156.548,66.604v-1.51c-0.352-0.867-1.086-2.159-2.572-3.046
				c0,0-1.139-0.899-4.389-0.636c0,0-1.4,0.126-2.19-0.386c0,0,2.05,5.23,6.131,5.002L156.548,66.604z"/>
			<path fill="#FCC300" stroke="#000000" stroke-width="0.5901" d="M156.593,66.604v-1.51c0.352-0.867,1.089-2.159,2.574-3.046
				c0,0,1.133-0.899,4.391-0.636c0,0,1.396,0.126,2.194-0.386c0,0-2.058,5.23-6.139,5.002L156.593,66.604z"/>
			<line fill="none" stroke="#000000" stroke-width="1.0294" x1="156.481" y1="66.199" x2="156.481" y2="55.776"/>
			<path fill="#FCC300" stroke="#000000" stroke-width="0.5901" d="M156.267,47.858c-0.38,0-0.438-0.51-0.438-0.51
				c-0.095-0.522-0.506-1.738-2.053-2.34c0,0-0.594-0.247-2.38-0.298c0,0,0.407,0.868,0.584,1.476c0,0,0.427,1.596,2.092,1.89
				c0,0,0.76,0.149,0.815,0.738c0,0-0.109,0.608-0.776,0.44c0,0-2.945-0.905-4.742,2.29c0,0,1.823,1.007,2.118,1.155
				c0,0,1.532,0.991,2.585-0.389c0,0,0.566-0.915,1.276-0.846c0,0,0.592,0.253-0.143,1.659c0,0-0.825,1.681,0.443,3.008
				c0,0,1.275,1.327,1.301,1.685c0,0,0.127-0.969,0.829-1.786c0,0,1.141-1.435,0.216-3.195c0,0-0.754-0.988-0.25-1.412
				c0,0,0.633-0.335,1.225,0.611c0,0,0.865,1.07,2.698,0.627c0,0,0.624-0.082,2.185-1.602c0,0-1.102-1.909-3.176-1.934
				c0,0-0.443-0.061-1.485,0.256c0,0-1.13,0.228-0.813-0.694c0,0,0.231-0.272,0.757-0.421c0,0,2.169-0.497,2.314-2.463
				c0,0,0.022-1.007,0.399-1.634c0,0-3.277,0.57-4.271,2.419l-0.596,0.816C156.981,47.405,156.659,47.858,156.267,47.858z"/>
		</g>
		<g>
			<path fill="#FCC300" stroke="#000000" stroke-width="0.5901" d="M126.07,66.604v-1.51c-0.344-0.867-1.083-2.159-2.565-3.046
				c0,0-1.137-0.899-4.389-0.636c0,0-1.401,0.126-2.196-0.386c0,0,2.06,5.23,6.137,5.002L126.07,66.604z"/>
			<path fill="#FCC300" stroke="#000000" stroke-width="0.5901" d="M126.121,66.604v-1.51c0.35-0.867,1.08-2.159,2.576-3.046
				c0,0,1.138-0.899,4.388-0.636c0,0,1.398,0.126,2.191-0.386c0,0-2.064,5.23-6.135,5.002L126.121,66.604z"/>
			<line fill="none" stroke="#000000" stroke-width="1.0294" x1="126.017" y1="66.199" x2="126.017" y2="55.776"/>
			<path fill="#FCC300" stroke="#000000" stroke-width="0.5901" d="M125.798,47.858c-0.385,0-0.434-0.51-0.434-0.51
				c-0.109-0.522-0.522-1.738-2.062-2.34c0,0-0.586-0.247-2.373-0.298c0,0,0.398,0.868,0.586,1.476c0,0,0.418,1.596,2.077,1.89
				c0,0,0.766,0.149,0.824,0.738c0,0-0.1,0.608-0.785,0.44c0,0-2.937-0.905-4.729,2.29c0,0,1.81,1.007,2.116,1.155
				c0,0,1.529,0.991,2.573-0.389c0,0,0.566-0.915,1.291-0.846c0,0,0.577,0.253-0.158,1.659c0,0-0.816,1.681,0.445,3.008
				c0,0,1.287,1.327,1.301,1.685c0,0,0.135-0.969,0.848-1.786c0,0,1.133-1.435,0.204-3.195c0,0-0.752-0.988-0.244-1.412
				c0,0,0.629-0.335,1.219,0.611c0,0,0.856,1.07,2.693,0.627c0,0,0.637-0.082,2.182-1.602c0,0-1.098-1.909-3.17-1.934
				c0,0-0.449-0.061-1.479,0.256c0,0-1.129,0.228-0.816-0.694c0,0,0.228-0.272,0.753-0.421c0,0,2.176-0.497,2.313-2.463
				c0,0,0.036-1.007,0.408-1.634c0,0-3.288,0.57-4.276,2.419l-0.6,0.816C126.506,47.405,126.185,47.858,125.798,47.858z"/>
		</g>
		<g>
			<path fill="#FCC300" stroke="#000000" stroke-width="0.5901" d="M187.022,66.604v-1.51c-0.349-0.867-1.083-2.159-2.574-3.046
				c0,0-1.143-0.899-4.392-0.636c0,0-1.393,0.126-2.19-0.386c0,0,2.064,5.23,6.133,5.002L187.022,66.604z"/>
			<path fill="#FCC300" stroke="#000000" stroke-width="0.5901" d="M187.066,66.604v-1.51c0.349-0.867,1.086-2.159,2.574-3.046
				c0,0,1.137-0.899,4.389-0.636c0,0,1.402,0.126,2.19-0.386c0,0-2.055,5.23-6.136,5.002L187.066,66.604z"/>
			<line fill="none" stroke="#000000" stroke-width="1.0294" x1="186.959" y1="66.199" x2="186.959" y2="55.776"/>
			<path fill="#FCC300" stroke="#000000" stroke-width="0.5901" d="M186.747,47.858c-0.387,0-0.434-0.51-0.434-0.51
				c-0.111-0.522-0.522-1.738-2.064-2.34c0,0-0.586-0.247-2.371-0.298c0,0,0.401,0.868,0.572,1.476c0,0,0.428,1.596,2.093,1.89
				c0,0,0.767,0.149,0.827,0.738c0,0-0.111,0.608-0.785,0.44c0,0-2.945-0.905-4.737,2.29c0,0,1.817,1.007,2.115,1.155
				c0,0,1.532,0.991,2.58-0.389c0,0,0.561-0.915,1.276-0.846c0,0,0.589,0.253-0.143,1.659c0,0-0.826,1.681,0.44,3.008
				c0,0,1.285,1.327,1.304,1.685c0,0,0.137-0.969,0.843-1.786c0,0,1.13-1.435,0.202-3.195c0,0-0.743-0.988-0.25-1.412
				c0,0,0.643-0.335,1.229,0.611c0,0,0.858,1.07,2.698,0.627c0,0,0.62-0.082,2.181-1.602c0,0-1.102-1.909-3.179-1.934
				c0,0-0.437-0.061-1.469,0.256c0,0-1.134,0.228-0.817-0.694c0,0,0.222-0.272,0.748-0.421c0,0,2.185-0.497,2.314-2.463
				c0,0,0.031-1.007,0.401-1.634c0,0-3.28,0.57-4.268,2.419l-0.602,0.816C187.453,47.405,187.127,47.858,186.747,47.858z"/>
		</g>
	</g>
	<polygon fill="#E3DEC3" points="124.37,116.618 124.153,117.026 125.277,120.293 135.595,122.427 134.864,121.107 134.686,120.148 
		134.899,119.559 	"/>
	<path fill="none" stroke="#000000" stroke-width="0.5901" d="M124.198,116.7c0,0,0.067,1.589,1.053,3.417"/>
	<path d="M135.113,119.828l-0.567-0.162c0,0-0.911,1.099,0.808,2.824l0.971,0.085C136.324,122.576,134.596,121.494,135.113,119.828"
		/>
	<path fill="#E3DEC3" stroke="#000000" stroke-width="0.5901" d="M123.314,114.819l12.225,3.391c0,0,0.104,0.874-0.462,1.399
		l-11.911-3.331C123.166,116.279,122.644,115.544,123.314,114.819z"/>
	<path fill="#E3DEC3" stroke="#000000" stroke-width="0.5901" d="M125.808,121.782c0,0,1.642,5.154,9.641,14.412h0.322
		c1.364-0.256,2.843-0.681,4.456-1.314l-2.095-7.276c0,0-0.117-0.646,0.423-0.77c0,0,0.589-0.057,0.767,0.599l2.279,7.764
		c0.405,0.272,1.058,0.652,1.901,0.997l4.096,0.01l-2.286-8.004c0,0-0.117-0.652,0.421-0.776c0,0,0.586-0.057,0.775,0.605
		l2.357,8.175h3.069c0.73-0.285,1.483-0.63,2.269-1.089l-1.964-6.583c0,0-0.117-0.655,0.421-0.775c0,0,0.595-0.054,0.768,0.592
		l1.983,6.652c0.532,0.291,1.628,0.807,3.081,1.203l3.242,0.009l-2.347-8.026c0,0-0.101-0.662,0.428-0.779
		c0,0,0.608-0.057,0.775,0.595l2.382,8.21h2.621c0.938-0.275,1.894-0.668,2.853-1.229l-2.137-7.314c0,0-0.117-0.665,0.424-0.775
		c0,0,0.589-0.063,0.772,0.589l2.064,6.997c0.051,0.025,1.552,1.051,4.098,1.723c0.126-0.181,9.327-13.903,11.803-26.096
		l-15.723,4.505c0,0,0.69,7.061-4.642,8.308c0,0-12.695,4.151-39.865-2.742c0,0-0.893,0.361,0.109,1.248L125.808,121.782z"/>
	<path fill="#E3DEC3" stroke="#000000" stroke-width="0.5901" d="M168.716,120.179l15.268-3.961c0,0,1.767-0.769,0.531-1.808
		l-15.72,4.259C168.795,118.669,167.643,119.92,168.716,120.179"/>
	<path fill="#E3DEC3" stroke="#000000" stroke-width="0.5901" d="M169.501,115.807l15.885-4.335c0,0,1.567-1.111,0.164-1.801
		l-16.049,4.499C169.501,114.17,168.5,115.341,169.501,115.807"/>
	<g>
		<g>
			<g>
				<path d="M12.035,237.635l-8.72-13.282v13.282H0.454v-18.864h2.62l8.72,13.247v-13.247h2.865v18.864H12.035z"/>
			</g>
			<g>
				<path d="M23.561,237.635v-18.864h12.052v2.57h-9.196v5.503h7.846v2.553h-7.846v5.67h9.196v2.568H23.561z"/>
			</g>
			<g>
				<path d="M49.978,237.799c-3.843,0-6.759-2.631-6.759-6.531v-12.497h2.861v12.367c0,2.517,1.537,4.084,3.898,4.084
					c2.359,0,3.914-1.567,3.914-4.084v-12.367h2.862v12.497C56.754,235.168,53.813,237.799,49.978,237.799z"/>
			</g>
			<g>
				<path d="M65.369,237.635v-18.864h2.865v18.864H65.369z"/>
			</g>
			<g>
				<path d="M77.144,237.635v-18.864h2.857v16.296h9.087v2.568H77.144z"/>
			</g>
			<g>
				<path d="M96.326,237.635v-18.864h2.857v16.296h9.09v2.568H96.326z"/>
			</g>
			<g>
				<path d="M119.556,229.862v7.773h-2.857v-7.773l-5.649-11.091h3.128l3.95,8.292l3.949-8.292h3.124L119.556,229.862z"/>
			</g>
			<g>
				<path d="M131.091,231.543v-2.527h7.731v2.527H131.091z"/>
			</g>
			<g>
				<path d="M152.044,237.799c-2.833,0-4.874-0.668-6.679-2.495l1.909-1.887c1.379,1.381,2.894,1.805,4.825,1.805
					c2.462,0,3.888-1.061,3.888-2.888c0-0.826-0.234-1.507-0.734-1.966c-0.475-0.446-0.959-0.63-2.065-0.792l-2.227-0.316
					c-1.537-0.215-2.762-0.744-3.579-1.514c-0.929-0.873-1.377-2.064-1.377-3.603c0-3.287,2.384-5.535,6.302-5.535
					c2.495,0,4.245,0.637,5.859,2.15l-1.83,1.802c-1.162-1.115-2.519-1.463-4.106-1.463c-2.221,0-3.44,1.272-3.44,2.941
					c0,0.684,0.208,1.301,0.711,1.747c0.477,0.435,1.248,0.738,2.118,0.881l2.153,0.316c1.741,0.257,2.726,0.684,3.521,1.399
					c1.032,0.902,1.539,2.258,1.539,3.869C158.831,235.719,155.987,237.799,152.044,237.799z"/>
			</g>
			<g>
				<path d="M173.11,237.799c-3.838,0-6.757-2.631-6.757-6.531v-12.497h2.862v12.367c0,2.517,1.539,4.084,3.895,4.084
					c2.358,0,3.923-1.567,3.923-4.084v-12.367h2.862v12.497C179.896,235.168,176.957,237.799,173.11,237.799z"/>
			</g>
			<g>
				<path d="M198.915,237.635l-3.965-7.951h-3.584v7.951h-2.862v-18.864h7.314c3.581,0,5.857,2.299,5.857,5.509
					c0,2.704-1.646,4.423-3.765,5.006l4.344,8.35H198.915z M195.609,221.341h-4.243v5.899h4.243c1.905,0,3.204-1.09,3.204-2.938
					C198.813,222.45,197.515,221.341,195.609,221.341z"/>
			</g>
			<g>
				<path d="M209.147,231.543v-2.527h7.738v2.527H209.147z"/>
			</g>
			<g>
				<path d="M230.11,237.799c-2.84,0-4.875-0.668-6.68-2.495l1.909-1.887c1.377,1.381,2.884,1.805,4.818,1.805
					c2.47,0,3.901-1.061,3.901-2.888c0-0.826-0.247-1.507-0.744-1.966c-0.476-0.446-0.957-0.63-2.074-0.792l-2.22-0.316
					c-1.535-0.215-2.751-0.744-3.577-1.514c-0.925-0.873-1.375-2.064-1.375-3.603c0-3.287,2.382-5.535,6.308-5.535
					c2.488,0,4.233,0.637,5.854,2.15l-1.83,1.802c-1.169-1.115-2.515-1.463-4.104-1.463c-2.229,0-3.451,1.272-3.451,2.941
					c0,0.684,0.222,1.301,0.719,1.747c0.478,0.435,1.247,0.738,2.118,0.881l2.149,0.316c1.745,0.257,2.727,0.684,3.524,1.399
					c1.028,0.902,1.535,2.258,1.535,3.869C236.893,235.719,234.06,237.799,230.11,237.799z"/>
			</g>
			<g>
				<path d="M244.71,237.635v-18.864h12.051v2.57h-9.188v5.503h7.846v2.553h-7.846v5.67h9.188v2.568H244.71z"/>
			</g>
			<g>
				<path d="M264.663,237.635v-18.864h2.865v18.864H264.663z"/>
			</g>
			<g>
				<path d="M288.011,237.635l-8.72-13.282v13.282h-2.856v-18.864h2.609l8.727,13.247v-13.247h2.861v18.864H288.011z"/>
			</g>
			<g>
				<path d="M299.535,237.635v-18.864h12.054v2.57h-9.191v5.503h7.84v2.553h-7.84v5.67h9.191v2.568H299.535z"/>
			</g>
		</g>
		<g>
			<g>
				<polyline points="0,252.083 97.418,252.083 118.635,252.083 155.582,252.083 176.793,252.083 213.738,252.083 234.952,252.083 
					271.895,252.083 311.589,252.083 311.589,251.417 271.895,251.417 234.952,251.417 213.738,251.417 176.793,251.417 
					155.582,251.417 118.635,251.417 97.418,251.417 0,251.417 				"/>
			</g>
		</g>
		<g>
			<rect x="223.839" y="251.75" width="87.75" height="4.354"/>
		</g>
	</g>
</g>
</svg>
